<?xml version="1.0" standalone="no"?>
<!DOCTYPE svg PUBLIC "-//W3C//DTD SVG 20010904//EN"
 "http://www.w3.org/TR/2001/REC-SVG-20010904/DTD/svg10.dtd">
<svg version="1.0" xmlns="http://www.w3.org/2000/svg"
 width="1264.000000pt" height="1280.000000pt" viewBox="0 0 1264.000000 1280.000000"
 preserveAspectRatio="xMidYMid meet">
<metadata>
Created by potrace 1.15, written by Peter Selinger 2001-2017
</metadata>
<g transform="translate(0.000000,1280.000000) scale(0.100000,-0.100000)"
fill="#2196f3" stroke="none">
<path d="M9990 12789 c-329 -41 -584 -212 -684 -458 -109 -268 -61 -631 132
-1013 125 -247 352 -567 429 -603 92 -44 203 27 203 128 0 49 -8 62 -96 172
-216 270 -373 577 -420 822 -8 41 -14 121 -14 178 0 262 121 410 385 471 119
28 394 26 570 -5 262 -45 627 -152 833 -245 403 -181 683 -446 858 -810 112
-235 164 -464 164 -731 0 -519 -219 -978 -542 -1139 -89 -45 -163 -60 -268
-53 -128 8 -271 64 -770 299 -449 212 -656 306 -825 373 -414 163 -704 227
-1040 226 -349 0 -644 -73 -976 -242 -364 -185 -566 -396 -682 -709 -101 -272
-114 -630 -37 -1020 118 -603 467 -1397 999 -2274 39 -65 73 -122 74 -126 1
-5 -70 -62 -158 -128 -320 -240 -584 -470 -813 -708 l-137 -142 -775 -524
c-2819 -1907 -4917 -3375 -5925 -4146 -220 -169 -476 -374 -472 -378 5 -5 308
158 546 293 1173 666 3347 2019 6230 3877 646 417 701 450 800 485 282 100
750 324 1055 505 l159 94 85 -117 c499 -685 936 -1054 1702 -1436 243 -121
341 -165 369 -165 33 0 83 25 110 54 19 20 26 40 29 84 6 90 -10 104 -275 232
-809 393 -1207 716 -1676 1362 -50 70 -92 132 -92 137 0 5 63 53 140 107 484
336 892 706 1061 961 122 184 137 325 41 383 -83 51 -228 47 -435 -11 -299
-84 -763 -309 -1192 -579 -72 -45 -133 -81 -134 -79 -2 2 -52 85 -111 184
-527 880 -830 1590 -936 2190 -20 111 -23 163 -23 355 0 210 2 231 26 321 54
198 106 295 223 415 180 184 541 364 875 436 90 19 134 22 315 22 226 0 291
-8 515 -64 253 -64 486 -158 1060 -427 477 -225 758 -347 855 -374 225 -61
482 -29 677 86 257 151 464 449 563 811 54 198 69 313 69 534 0 202 -8 280
-50 461 -128 566 -497 1033 -1034 1308 -263 136 -704 271 -1057 326 -122 19
-403 27 -503 14z m27 -6165 c19 -49 -147 -235 -382 -430 -247 -204 -743 -560
-759 -544 -4 4 -54 79 -111 167 l-103 158 21 17 c43 33 375 237 527 323 182
103 441 232 555 276 136 53 239 66 252 33z m-1581 -831 c6 -10 54 -84 107
-165 l96 -146 -167 -100 c-414 -246 -740 -404 -899 -433 -57 -11 -93 0 -93 27
0 74 218 296 529 538 156 121 395 295 406 296 6 0 15 -8 21 -17z"/>
</g>
</svg>
